<svg xmlns="http://www.w3.org/2000/svg" viewBox="0 0 240.19 115.4"><defs><style>.cls-1{fill:#2b2b2b;}.cls-2{fill:#f7941d;}</style></defs><g id="Layer_2" data-name="Layer 2"><g id="Layer_1-2" data-name="Layer 1"><path class="cls-1" d="M0,115.4V0H33.91q10.4,0,16.88,3.85A22.78,22.78,0,0,1,60.33,15q3.08,7.34,3.07,17.74,0,11.25-3.85,18.16A22.9,22.9,0,0,1,48.79,61a39.16,39.16,0,0,1-16.31,3.13H21.08V115.4ZM21.08,49.29h8c3.8,0,6.77-.54,8.91-1.64a8.72,8.72,0,0,0,4.41-5.27,31.69,31.69,0,0,0,1.21-9.76,45.54,45.54,0,0,0-.92-10.18,8.76,8.76,0,0,0-4-5.77q-3.06-1.85-9.62-1.85h-8Z"/><path class="cls-1" d="M117.51,115.4V0h14.67l28.07,65.82V0h17.38V115.4h-14l-28.21-69v69Z"/><path class="cls-1" d="M201,115.4V15.53H182.63V0h57.56V15.53h-18.1V115.4Z"/><path class="cls-2" d="M105.61,90.07a10,10,0,0,0-.87.85A12.18,12.18,0,0,1,99,94.54a5.4,5.4,0,0,1-1.13.1,23.32,23.32,0,0,1,3.72-6.56,17.68,17.68,0,0,0-4.87,4.53,38.7,38.7,0,0,0-6.58,12.89c-.75,2.51-1.59,5-2.4,7.49-.17.53-.4,1-.64,1.69l-1.31-1c.5.15.52-.22.61-.54.91-3.26,1.84-6.52,2.73-9.79a4.55,4.55,0,0,0,0-1.11l.09,0c.06-.11,0,0,0,.08-1.43,3.47-2.85,6.94-4.27,10.38l.88,1-2.09-.47a12.49,12.49,0,0,0,2.45,2.15H74.79v-2.65a1.26,1.26,0,0,1,1-1.25c1.86-.28,3.7.33,5.77.71a14.32,14.32,0,0,0-4.89-2,1.18,1.18,0,0,1-.88-1.51c1.33-4.17,2.84-8.25,2.63-12.68l0,0a5.59,5.59,0,0,1,1.15,3.64,20.61,20.61,0,0,1-.45,6.31,8.57,8.57,0,0,0-.14,1.12l-.1.23.08-.27a14.65,14.65,0,0,0,1.9-6.32,26.57,26.57,0,0,0-.2-5,6.28,6.28,0,0,0-.45-1.4l-1.34.07,1.93-2.34-.19-.23c-1.35,1.13-2.79,2-4.62,1.59A4,4,0,0,1,73.66,92c.1-.09.18-.19.21-.18,3.21,1,5.88-1.07,6.44-4.41a5.88,5.88,0,0,0-.6-3.73c-1.42-2.7-4-3.5-6.47-2.23l-.76.37-.11-.12A3.83,3.83,0,0,1,75.5,80,10.14,10.14,0,0,1,81,80.9a4,4,0,0,0,.92.19l0,.15a1.13,1.13,0,0,1,0-.12c-1.18-.92-1.56-3.31-1.56-3.31-.57-.09-4.54-.18-5.9-.18a1.77,1.77,0,0,1-1.78-1.79v-.1c0-1.14,0-2.29,0-3.18.38-.8,1-1.79,7-2.33V70H74a1.56,1.56,0,0,1-1.53-1.31A3.23,3.23,0,0,1,74.18,65c-.21-1.56-.38-3.18-.63-4.8a120.12,120.12,0,0,1-1.36-12.12c-.29-5.45-.73-10.89-1.11-16.34-.23-3.27-.44-6.55-.66-9.82-.36-5.26-.73-10.53-1.08-15.79-.1-1.47-.16-2.94-.24-4.44A3.13,3.13,0,0,1,71.34.65,44.55,44.55,0,0,1,84.83.39a8.58,8.58,0,0,1,1.66.53c0,.61,0,1.13,0,1.65C86.2,18.27,86,34,85.59,49.66c-.09,3.94-.51,7.87-.78,11.8-.07,1.09-.15,2.17-.24,3.39,2.27.69,1.88,2.59,1.86,4.44l-.88.53v1.6l.92.38c.06,1.23.1,2.42.19,3.6.06.87-.07,1.62-1,1.93v3.54a9.38,9.38,0,0,0,1.56-.23c1.25-.42,2.48-.92,3.72-1.37.29-.11.6-.18.9-.27v0c-.77.72-1.54,1.44-2.29,2.18a5.08,5.08,0,0,0-.52.7H89c-.12,0,0,0,.07,0a14.91,14.91,0,0,0,7-5.78L88.9,79.49c.43-2.86,3.79-6.34,6.78-6.54a10.33,10.33,0,0,1,7.53,2.86c.32.28.52.68.9.89-.74-2-2.33-3.23-4-4.56a6.83,6.83,0,0,1,5.5.32,10.32,10.32,0,0,1,5.52,6.73c1.45,4.84.79,9.31-2.62,13.19a8.22,8.22,0,0,1-5.92,2.73,4.09,4.09,0,0,1-.82-.18c1.65-1.5,3.31-2.79,3.85-4.89.06-.1.13-.2,0-.05Zm-8.85-5.95a7.91,7.91,0,0,0-1.39.61A23.26,23.26,0,0,0,85.9,97.84c-.6,2.08-1,4.22-1.51,6.33a10.49,10.49,0,0,0,1.16-2.62,41.2,41.2,0,0,1,4.57-10.23,37.52,37.52,0,0,1,6.6-7.24l0-.07ZM77.67,52.3a1,1,0,0,1-.92-.91c-.63-13.33-1-26.6-1.66-39.87h-.38c.14,13.32.29,26.65.43,39.91a1.06,1.06,0,0,1-1.06,1.06h0a.45.45,0,0,0-.44.45v.63a.34.34,0,0,0,.34.34h10.1l-.64-1.23a1.26,1.26,0,0,0-1-.43C81.39,52.29,79.1,52.34,77.67,52.3Zm-.43,3-2.14.83,1.22,6.41.27,0C76.8,60.23,77,57.93,77.24,55.32ZM75.32,66.4a11.2,11.2,0,0,0,6.92-.2A11.91,11.91,0,0,0,75.32,66.4Zm6.73,6.36c-2-.72-5.42-.59-6.89.25A14.76,14.76,0,0,0,82.05,72.76ZM82.38,58l-.15-.05c-.35,2.16-.7,4.32-1.08,6.61l1.23-.34Z"/><path class="cls-2" d="M77.2,82.79c-2.86.24-4.09,1.44-4,3.74s1.38,3.28,4.34,3.33a2.72,2.72,0,0,1-2.69,1,4.31,4.31,0,0,1-3.36-4.23,4.19,4.19,0,0,1,3-4.46A2.72,2.72,0,0,1,77.2,82.79Z"/><path class="cls-2" d="M72.48,81.8l-.24.15.13-.27Z"/><polygon class="cls-2" points="78.46 96.01 78.4 96 78.43 96.04 78.46 96.01"/><polygon class="cls-2" points="91.89 79 91.92 78.89 91.9 78.96 91.89 79"/></g></g></svg>